<svg preserveAspectRatio="none" width="100%" height="100%" overflow="visible" style="display: block;" viewBox="0 0 284 147.381" fill="none" xmlns="http://www.w3.org/2000/svg">
<g id="Frame 482659">
<g id="Vector 536" filter="url(#filter0_i_0_4)">
<path d="M0 5.38054H284L277.886 21.811C276.647 25.1411 274.62 28.1215 271.978 30.4974L155.348 135.377C147.755 142.206 136.236 142.216 128.63 135.402L11.7242 30.665C8.95336 28.1826 6.85729 25.0381 5.63195 21.5255L0 5.38054Z" fill="var(--fill-0, #E9E8E3)"/>
</g>
<path id="Vector 537" d="M128.858 99.2384L40 10.3805H246L157.142 99.2384C149.332 107.049 136.668 107.049 128.858 99.2384Z" fill="url(#paint0_linear_0_4)" fill-opacity="0.2"/>
<g id="Rectangle 5" filter="url(#filter1_f_0_4)">
<rect x="130.321" y="77.8808" width="98.8472" height="30.013" transform="rotate(-44.1741 130.321 77.8808)" fill="var(--fill-0, #959592)" fill-opacity="0.02"/>
</g>
</g>
<defs>
<filter id="filter0_i_0_4" x="0" y="5.38054" width="284" height="135.125" filterUnits="userSpaceOnUse" color-interpolation-filters="sRGB">
<feFlood flood-opacity="0" result="BackgroundImageFix"/>
<feBlend mode="normal" in="SourceGraphic" in2="BackgroundImageFix" result="shape"/>
<feColorMatrix in="SourceAlpha" type="matrix" values="0 0 0 0 0 0 0 0 0 0 0 0 0 0 0 0 0 0 127 0" result="hardAlpha"/>
<feOffset dx="1" dy="1"/>
<feComposite in2="hardAlpha" operator="arithmetic" k2="-1" k3="1"/>
<feColorMatrix type="matrix" values="0 0 0 0 1 0 0 0 0 1 0 0 0 0 1 0 0 0 0.4 0"/>
<feBlend mode="normal" in2="shape" result="effect1_innerShadow_0_4"/>
</filter>
<filter id="filter1_f_0_4" x="121.321" y="2.38419e-07" width="109.81" height="108.407" filterUnits="userSpaceOnUse" color-interpolation-filters="sRGB">
<feFlood flood-opacity="0" result="BackgroundImageFix"/>
<feBlend mode="normal" in="SourceGraphic" in2="BackgroundImageFix" result="shape"/>
<feGaussianBlur stdDeviation="4.5" result="effect1_foregroundBlur_0_4"/>
</filter>
<linearGradient id="paint0_linear_0_4" x1="154" y1="21.8805" x2="191.5" y2="64.3805" gradientUnits="userSpaceOnUse">
<stop offset="0.804891" stop-color="#E9E8E3"/>
<stop offset="1" stop-color="#E5E4DE"/>
</linearGradient>
</defs>
</svg>
