<svg width="27" height="34" viewBox="0 0 27 34" fill="none" xmlns="http://www.w3.org/2000/svg">
<g clip-path="url(#clip0_1052_5269)">
<path d="M8.43184 7.20167C9.03939 7.24628 9.8876 7.22404 10.5092 7.22412L14.077 7.22391L17.42 7.22336C17.9883 7.22328 18.8103 7.24529 19.3569 7.20164C19.3447 7.53121 19.3672 8.16308 19.3322 8.43671C19.8532 8.43184 20.3743 8.4297 20.8954 8.43036C21.1347 8.42997 21.5532 8.43884 21.7826 8.41567C21.7763 8.76724 21.8005 9.38064 21.7741 9.6862C22.1692 9.68102 22.6153 9.66625 23.0059 9.6836C23.0002 9.91882 23.0018 10.6921 22.97 10.8774C23.3553 10.8536 23.8199 10.8862 24.1772 10.8404C24.1749 11.1709 24.1947 11.7812 24.1702 12.0819C24.5583 12.0774 25.0175 12.0615 25.3996 12.0795C25.3856 12.6029 25.381 13.1265 25.3859 13.6501C25.386 13.8741 25.3991 14.2732 25.3732 14.4788C25.7604 14.4732 26.1814 14.4594 26.5658 14.4682C26.5931 15.1467 26.5785 15.8805 26.5785 16.564L26.5775 20.114V23.4283C26.5778 24.0569 26.5936 24.7694 26.5668 25.3932C26.1752 25.3753 25.7254 25.3951 25.3665 25.3727C25.4125 25.9062 25.3702 26.5337 25.3862 27.0777C25.393 27.3108 25.3734 27.5889 25.4159 27.8165C25.0091 27.8167 24.5718 27.8266 24.168 27.8178C24.1728 28.2264 24.1751 28.6349 24.175 29.0435C23.7563 29.0063 23.3856 29.0334 22.9705 29.0182C23.0009 29.3792 22.9669 29.9026 23.02 30.2119C22.6124 30.2125 22.1772 30.2221 21.7723 30.2138C21.777 30.6223 21.7794 31.0309 21.7794 31.4395C21.402 31.4035 20.8031 31.446 20.5218 31.3999C20.5269 31.7233 20.5117 32.3337 20.5399 32.6238C19.949 32.553 18.7821 32.6316 18.127 32.6108C18.1286 32.8123 18.1341 33.0269 18.1306 33.2274H9.6854C9.67969 33.0214 9.68506 32.8139 9.68863 32.6076C8.92721 32.6058 7.95893 32.5803 7.2136 32.6264C7.22805 32.2814 7.18233 31.7353 7.23795 31.4111C6.49695 31.4015 5.55247 31.3905 4.82399 31.427C4.81217 31.0213 4.81308 30.6153 4.8267 30.2099C4.48726 30.2096 3.96685 30.1987 3.64134 30.2348C3.63686 29.8263 3.63874 29.4174 3.64702 29.0089C3.28709 29.0138 2.73394 29.0042 2.39418 29.0414C2.38583 28.2157 2.38667 27.3899 2.39669 26.5642C1.99409 26.5647 1.57211 26.5587 1.1721 26.585C1.20675 25.8184 1.14956 24.9602 1.17995 24.1684L0 24.1706V15.7242C0.366546 15.7224 0.833547 15.7084 1.19142 15.7329C1.15702 15.4386 1.17088 15.0559 1.17098 14.752L1.17005 13.2464C1.5404 13.2663 2.06208 13.2423 2.39789 13.2725C2.39176 12.9385 2.40831 12.3752 2.38241 12.0722C2.76001 12.0741 3.28162 12.0611 3.64772 12.086C3.63926 11.6729 3.63676 11.2597 3.64028 10.8466C4.00833 10.8753 4.51536 10.8433 4.83969 10.8811C4.78779 10.4984 4.84612 10.0508 4.80435 9.68375C5.19092 9.68024 5.65798 9.66706 6.04304 9.69037C6.03757 9.3451 6.05497 8.74094 6.0282 8.427C6.75295 8.43054 7.74508 8.39879 8.43869 8.43952C8.43088 8.02694 8.42859 7.6143 8.43184 7.20167Z" fill="#12A49D"/>
<path d="M0 0H7.27477C7.24714 1.10252 7.26396 2.2671 7.26409 3.37417C7.25394 4.66634 7.26201 5.95859 7.28831 7.25053C6.77383 7.28105 6.13605 7.25883 5.60903 7.25756L2.01645 7.25644C1.41692 7.25659 0.580196 7.23394 0 7.2712V0Z" fill="#FBB716"/>
</g>
<defs>
<clipPath id="clip0_1052_5269">
<rect width="26.6653" height="33.2274" fill="white"/>
</clipPath>
</defs>
</svg>
