<svg width="294" height="354" viewBox="0 0 294 354" fill="none" xmlns="http://www.w3.org/2000/svg">
<g filter="url(#filter0_dddd_1308_5990)">
<rect x="16" y="169.5" width="263" height="166" rx="1" fill="#F5F5F5"/>
<g filter="url(#filter1_i_1308_5990)">
<path d="M15.5103 168.5C15.5103 169.052 15.958 169.5 16.5103 169.5H278C278.552 169.5 279 169.052 279 168.5V2C279 1.44771 278.552 1 278 1H16.5103C15.958 1 15.5103 1.44772 15.5103 2V168.5Z" fill="#F5F5F5"/>
</g>
<path d="M47.6 255.5V252.75L45.39 248.2H46.21L47.71 251.28C47.79 251.44 47.8533 251.58 47.9 251.7C47.9533 251.82 47.99 251.91 48.01 251.97C48.03 251.91 48.0667 251.82 48.12 251.7C48.1733 251.58 48.2367 251.44 48.31 251.28L49.79 248.2H50.61L48.4 252.75V255.5H47.6ZM53.7961 255.59C53.3694 255.59 52.9994 255.507 52.6861 255.34C52.3728 255.173 52.1294 254.933 51.9561 254.62C51.7828 254.307 51.6961 253.937 51.6961 253.51V251.99C51.6961 251.557 51.7828 251.187 51.9561 250.88C52.1294 250.567 52.3728 250.327 52.6861 250.16C52.9994 249.993 53.3694 249.91 53.7961 249.91C54.2228 249.91 54.5928 249.993 54.9061 250.16C55.2194 250.327 55.4628 250.567 55.6361 250.88C55.8094 251.187 55.8961 251.553 55.8961 251.98V253.51C55.8961 253.937 55.8094 254.307 55.6361 254.62C55.4628 254.933 55.2194 255.173 54.9061 255.34C54.5928 255.507 54.2228 255.59 53.7961 255.59ZM53.7961 254.88C54.2094 254.88 54.5294 254.763 54.7561 254.53C54.9828 254.297 55.0961 253.957 55.0961 253.51V251.99C55.0961 251.543 54.9794 251.203 54.7461 250.97C54.5194 250.737 54.2028 250.62 53.7961 250.62C53.3894 250.62 53.0694 250.737 52.8361 250.97C52.6094 251.203 52.4961 251.543 52.4961 251.99V253.51C52.4961 253.957 52.6094 254.297 52.8361 254.53C53.0694 254.763 53.3894 254.88 53.7961 254.88ZM59.5822 255.6C58.9622 255.6 58.4655 255.413 58.0922 255.04C57.7255 254.667 57.5422 254.16 57.5422 253.52V250H58.3322V253.52C58.3322 253.953 58.4422 254.293 58.6622 254.54C58.8889 254.78 59.1955 254.9 59.5822 254.9C59.9755 254.9 60.2855 254.78 60.5122 254.54C60.7389 254.293 60.8522 253.953 60.8522 253.52V250H61.6422V253.52C61.6422 254.16 61.4555 254.667 61.0822 255.04C60.7089 255.413 60.2089 255.6 59.5822 255.6ZM70.9844 255.59C70.6244 255.59 70.3077 255.53 70.0344 255.41C69.761 255.29 69.5444 255.123 69.3844 254.91C69.2244 254.69 69.1277 254.437 69.0944 254.15H69.8844C69.931 254.37 70.0477 254.547 70.2344 254.68C70.4277 254.813 70.6777 254.88 70.9844 254.88H71.4744C71.8277 254.88 72.0944 254.803 72.2744 254.65C72.461 254.49 72.5544 254.28 72.5544 254.02C72.5544 253.773 72.4744 253.573 72.3144 253.42C72.1544 253.267 71.9244 253.167 71.6244 253.12L70.7944 252.99C70.2744 252.903 69.881 252.737 69.6144 252.49C69.3544 252.243 69.2244 251.897 69.2244 251.45C69.2244 250.963 69.381 250.587 69.6944 250.32C70.0144 250.047 70.4744 249.91 71.0744 249.91H71.4644C71.9844 249.91 72.401 250.033 72.7144 250.28C73.0344 250.527 73.2277 250.86 73.2944 251.28H72.4944C72.4544 251.08 72.3444 250.92 72.1644 250.8C71.991 250.68 71.7577 250.62 71.4644 250.62H71.0744C70.721 250.62 70.4577 250.693 70.2844 250.84C70.111 250.98 70.0244 251.183 70.0244 251.45C70.0244 251.69 70.0977 251.873 70.2444 252C70.391 252.12 70.6144 252.203 70.9144 252.25L71.7344 252.38C72.281 252.467 72.6877 252.64 72.9544 252.9C73.221 253.153 73.3544 253.51 73.3544 253.97C73.3544 254.47 73.1944 254.867 72.8744 255.16C72.5544 255.447 72.0877 255.59 71.4744 255.59H70.9844ZM74.8605 255.5V254.78H76.8205V250.72H75.1105V250H77.6205V254.78H79.4805V255.5H74.8605ZM77.1305 248.99C76.9238 248.99 76.7571 248.937 76.6305 248.83C76.5105 248.723 76.4505 248.577 76.4505 248.39C76.4505 248.197 76.5105 248.043 76.6305 247.93C76.7571 247.817 76.9238 247.76 77.1305 247.76C77.3371 247.76 77.5005 247.817 77.6205 247.93C77.7471 248.043 77.8105 248.197 77.8105 248.39C77.8105 248.57 77.7471 248.717 77.6205 248.83C77.5005 248.937 77.3371 248.99 77.1305 248.99ZM80.9266 255.5V250H81.7066V251.02H81.8966L81.6166 251.65C81.6232 251.09 81.7599 250.66 82.0266 250.36C82.2932 250.053 82.6766 249.9 83.1766 249.9C83.7566 249.9 84.2166 250.083 84.5566 250.45C84.9032 250.81 85.0766 251.297 85.0766 251.91V252.24H84.2666V251.97C84.2666 251.523 84.1566 251.18 83.9366 250.94C83.7166 250.693 83.4032 250.57 82.9966 250.57C82.6032 250.57 82.2932 250.693 82.0666 250.94C81.8399 251.187 81.7266 251.53 81.7266 251.97V255.5H80.9266ZM92.3388 255.5V248.2H93.1288V249.92V250.98H93.3288L93.1088 251.3C93.1088 250.86 93.2421 250.517 93.5088 250.27C93.7821 250.023 94.1521 249.9 94.6188 249.9C95.1654 249.9 95.6021 250.073 95.9288 250.42C96.2554 250.76 96.4188 251.223 96.4188 251.81V255.5H95.6288V251.9C95.6288 251.48 95.5188 251.153 95.2988 250.92C95.0788 250.687 94.7788 250.57 94.3988 250.57C94.0054 250.57 93.6954 250.693 93.4688 250.94C93.2421 251.187 93.1288 251.53 93.1288 251.97V255.5H92.3388ZM99.7348 255.6C99.1548 255.6 98.6982 255.453 98.3648 255.16C98.0315 254.86 97.8648 254.457 97.8648 253.95C97.8648 253.45 98.0282 253.057 98.3548 252.77C98.6815 252.477 99.1215 252.33 99.6748 252.33H101.425V251.75C101.425 251.383 101.318 251.1 101.105 250.9C100.892 250.7 100.588 250.6 100.195 250.6C99.8482 250.6 99.5582 250.677 99.3248 250.83C99.0982 250.983 98.9682 251.19 98.9348 251.45H98.1348C98.2015 250.977 98.4215 250.6 98.7948 250.32C99.1748 250.04 99.6482 249.9 100.215 249.9C100.828 249.9 101.315 250.067 101.675 250.4C102.035 250.727 102.215 251.17 102.215 251.73V255.5H101.435V254.43H101.305L101.455 254.27C101.455 254.677 101.298 255 100.985 255.24C100.672 255.48 100.255 255.6 99.7348 255.6ZM99.9248 254.96C100.365 254.96 100.725 254.85 101.005 254.63C101.285 254.41 101.425 254.123 101.425 253.77V252.94H99.6848C99.3715 252.94 99.1215 253.027 98.9348 253.2C98.7482 253.373 98.6548 253.61 98.6548 253.91C98.6548 254.23 98.7682 254.487 98.9948 254.68C99.2215 254.867 99.5315 254.96 99.9248 254.96ZM105.431 255.5L103.571 250H104.381L105.651 253.81C105.718 254.017 105.781 254.223 105.841 254.43C105.901 254.63 105.948 254.787 105.981 254.9C106.014 254.787 106.061 254.63 106.121 254.43C106.181 254.223 106.244 254.017 106.311 253.81L107.551 250H108.351L106.491 255.5H105.431ZM111.757 255.6C111.33 255.6 110.96 255.517 110.647 255.35C110.334 255.177 110.09 254.933 109.917 254.62C109.744 254.307 109.657 253.943 109.657 253.53V251.97C109.657 251.55 109.744 251.187 109.917 250.88C110.09 250.567 110.334 250.327 110.647 250.16C110.96 249.987 111.33 249.9 111.757 249.9C112.184 249.9 112.554 249.987 112.867 250.16C113.18 250.327 113.424 250.567 113.597 250.88C113.77 251.187 113.857 251.55 113.857 251.97V252.94H110.437V253.53C110.437 253.977 110.55 254.323 110.777 254.57C111.01 254.81 111.337 254.93 111.757 254.93C112.11 254.93 112.397 254.86 112.617 254.72C112.844 254.58 112.987 254.377 113.047 254.11H113.837C113.764 254.57 113.54 254.933 113.167 255.2C112.794 255.467 112.324 255.6 111.757 255.6ZM113.077 252.41V251.97C113.077 251.523 112.964 251.18 112.737 250.94C112.51 250.693 112.184 250.57 111.757 250.57C111.337 250.57 111.01 250.693 110.777 250.94C110.55 251.18 110.437 251.523 110.437 251.97V252.32H113.157L113.077 252.41ZM122.919 255.6C122.339 255.6 121.883 255.453 121.549 255.16C121.216 254.86 121.049 254.457 121.049 253.95C121.049 253.45 121.213 253.057 121.539 252.77C121.866 252.477 122.306 252.33 122.859 252.33H124.609V251.75C124.609 251.383 124.503 251.1 124.289 250.9C124.076 250.7 123.773 250.6 123.379 250.6C123.033 250.6 122.743 250.677 122.509 250.83C122.283 250.983 122.153 251.19 122.119 251.45H121.319C121.386 250.977 121.606 250.6 121.979 250.32C122.359 250.04 122.833 249.9 123.399 249.9C124.013 249.9 124.499 250.067 124.859 250.4C125.219 250.727 125.399 251.17 125.399 251.73V255.5H124.619V254.43H124.489L124.639 254.27C124.639 254.677 124.483 255 124.169 255.24C123.856 255.48 123.439 255.6 122.919 255.6ZM123.109 254.96C123.549 254.96 123.909 254.85 124.189 254.63C124.469 254.41 124.609 254.123 124.609 253.77V252.94H122.869C122.556 252.94 122.306 253.027 122.119 253.2C121.933 253.373 121.839 253.61 121.839 253.91C121.839 254.23 121.953 254.487 122.179 254.68C122.406 254.867 122.716 254.96 123.109 254.96ZM133.581 257.3V256.58H135.251C135.565 256.58 135.795 256.507 135.941 256.36C136.095 256.213 136.171 255.99 136.171 255.69V255.05L136.191 254.01H136.011L136.201 253.78C136.201 254.193 136.065 254.523 135.791 254.77C135.518 255.017 135.151 255.14 134.691 255.14C134.131 255.14 133.688 254.957 133.361 254.59C133.035 254.217 132.871 253.72 132.871 253.1V251.93C132.871 251.31 133.035 250.817 133.361 250.45C133.688 250.083 134.131 249.9 134.691 249.9C135.151 249.9 135.518 250.023 135.791 250.27C136.065 250.51 136.201 250.837 136.201 251.25L136.021 251.02H136.181V250H136.961V255.69C136.961 256.197 136.811 256.59 136.511 256.87C136.218 257.157 135.798 257.3 135.251 257.3H133.581ZM134.921 254.45C135.315 254.45 135.621 254.33 135.841 254.09C136.068 253.843 136.181 253.503 136.181 253.07V251.97C136.181 251.537 136.068 251.2 135.841 250.96C135.621 250.713 135.315 250.59 134.921 250.59C134.521 250.59 134.211 250.71 133.991 250.95C133.771 251.19 133.661 251.53 133.661 251.97V253.07C133.661 253.51 133.771 253.85 133.991 254.09C134.211 254.33 134.521 254.45 134.921 254.45ZM138.888 255.5V250H139.668V251.02H139.858L139.578 251.65C139.584 251.09 139.721 250.66 139.988 250.36C140.254 250.053 140.638 249.9 141.138 249.9C141.718 249.9 142.178 250.083 142.518 250.45C142.864 250.81 143.038 251.297 143.038 251.91V252.24H142.228V251.97C142.228 251.523 142.118 251.18 141.898 250.94C141.678 250.693 141.364 250.57 140.958 250.57C140.564 250.57 140.254 250.693 140.028 250.94C139.801 251.187 139.688 251.53 139.688 251.97V255.5H138.888ZM146.534 255.6C146.107 255.6 145.737 255.517 145.424 255.35C145.11 255.177 144.867 254.933 144.694 254.62C144.52 254.307 144.434 253.943 144.434 253.53V251.97C144.434 251.55 144.52 251.187 144.694 250.88C144.867 250.567 145.11 250.327 145.424 250.16C145.737 249.987 146.107 249.9 146.534 249.9C146.96 249.9 147.33 249.987 147.644 250.16C147.957 250.327 148.2 250.567 148.374 250.88C148.547 251.187 148.634 251.55 148.634 251.97V252.94H145.214V253.53C145.214 253.977 145.327 254.323 145.554 254.57C145.787 254.81 146.114 254.93 146.534 254.93C146.887 254.93 147.174 254.86 147.394 254.72C147.62 254.58 147.764 254.377 147.824 254.11H148.614C148.54 254.57 148.317 254.933 147.944 255.2C147.57 255.467 147.1 255.6 146.534 255.6ZM147.854 252.41V251.97C147.854 251.523 147.74 251.18 147.514 250.94C147.287 250.693 146.96 250.57 146.534 250.57C146.114 250.57 145.787 250.693 145.554 250.94C145.327 251.18 145.214 251.523 145.214 251.97V252.32H147.934L147.854 252.41ZM151.9 255.6C151.32 255.6 150.863 255.453 150.53 255.16C150.196 254.86 150.03 254.457 150.03 253.95C150.03 253.45 150.193 253.057 150.52 252.77C150.846 252.477 151.286 252.33 151.84 252.33H153.59V251.75C153.59 251.383 153.483 251.1 153.27 250.9C153.056 250.7 152.753 250.6 152.36 250.6C152.013 250.6 151.723 250.677 151.49 250.83C151.263 250.983 151.133 251.19 151.1 251.45H150.3C150.366 250.977 150.586 250.6 150.96 250.32C151.34 250.04 151.813 249.9 152.38 249.9C152.993 249.9 153.48 250.067 153.84 250.4C154.2 250.727 154.38 251.17 154.38 251.73V255.5H153.6V254.43H153.47L153.62 254.27C153.62 254.677 153.463 255 153.15 255.24C152.836 255.48 152.42 255.6 151.9 255.6ZM152.09 254.96C152.53 254.96 152.89 254.85 153.17 254.63C153.45 254.41 153.59 254.123 153.59 253.77V252.94H151.85C151.536 252.94 151.286 253.027 151.1 253.2C150.913 253.373 150.82 253.61 150.82 253.91C150.82 254.23 150.933 254.487 151.16 254.68C151.386 254.867 151.696 254.96 152.09 254.96ZM158.726 255.5C158.266 255.5 157.909 255.38 157.656 255.14C157.402 254.893 157.276 254.547 157.276 254.1V250.72H155.716V250H157.276V248.45H158.076V250H160.286V250.72H158.076V254.1C158.076 254.553 158.292 254.78 158.726 254.78H160.186V255.5H158.726ZM168.968 255.5V251.27H167.348V250.55H168.968V249.56C168.968 249.14 169.098 248.81 169.358 248.57C169.625 248.323 169.988 248.2 170.448 248.2H172.038V248.92H170.448C170.228 248.92 170.058 248.977 169.938 249.09C169.825 249.197 169.768 249.353 169.768 249.56V250.55H172.038V251.27H169.768V255.5H168.968ZM175.504 255.6C174.884 255.6 174.387 255.413 174.014 255.04C173.647 254.667 173.464 254.16 173.464 253.52V250H174.254V253.52C174.254 253.953 174.364 254.293 174.584 254.54C174.811 254.78 175.117 254.9 175.504 254.9C175.897 254.9 176.207 254.78 176.434 254.54C176.661 254.293 176.774 253.953 176.774 253.52V250H177.564V253.52C177.564 254.16 177.377 254.667 177.004 255.04C176.631 255.413 176.131 255.6 175.504 255.6ZM181.34 255.6C180.913 255.6 180.54 255.517 180.22 255.35C179.9 255.183 179.65 254.947 179.47 254.64C179.297 254.327 179.21 253.957 179.21 253.53V251.97C179.21 251.543 179.297 251.177 179.47 250.87C179.65 250.557 179.9 250.317 180.22 250.15C180.54 249.983 180.913 249.9 181.34 249.9C181.967 249.9 182.47 250.07 182.85 250.41C183.23 250.75 183.427 251.213 183.44 251.8H182.65C182.637 251.42 182.513 251.127 182.28 250.92C182.053 250.713 181.74 250.61 181.34 250.61C180.933 250.61 180.61 250.73 180.37 250.97C180.13 251.203 180.01 251.537 180.01 251.97V253.53C180.01 253.957 180.13 254.29 180.37 254.53C180.61 254.77 180.933 254.89 181.34 254.89C181.74 254.89 182.053 254.787 182.28 254.58C182.513 254.367 182.637 254.073 182.65 253.7H183.44C183.427 254.287 183.23 254.75 182.85 255.09C182.47 255.43 181.967 255.6 181.34 255.6ZM185.106 255.5V248.2H185.896V252.31H187.026L188.656 250H189.576L187.726 252.62L189.606 255.5H188.676L187.036 253H185.896V255.5H185.106ZM190.782 255.5V254.78H192.742V250.72H191.032V250H193.542V254.78H195.402V255.5H190.782ZM193.052 248.99C192.846 248.99 192.679 248.937 192.552 248.83C192.432 248.723 192.372 248.577 192.372 248.39C192.372 248.197 192.432 248.043 192.552 247.93C192.679 247.817 192.846 247.76 193.052 247.76C193.259 247.76 193.422 247.817 193.542 247.93C193.669 248.043 193.732 248.197 193.732 248.39C193.732 248.57 193.669 248.717 193.542 248.83C193.422 248.937 193.259 248.99 193.052 248.99ZM196.668 255.5V250H197.458V251.02H197.658L197.438 251.31C197.438 250.87 197.572 250.527 197.838 250.28C198.112 250.027 198.482 249.9 198.948 249.9C199.495 249.9 199.932 250.073 200.258 250.42C200.585 250.76 200.748 251.223 200.748 251.81V255.5H199.958V251.9C199.958 251.48 199.848 251.157 199.628 250.93C199.408 250.703 199.108 250.59 198.728 250.59C198.335 250.59 198.025 250.71 197.798 250.95C197.572 251.19 197.458 251.53 197.458 251.97V255.5H196.668ZM203.165 250.85L203.945 247.74H205.145L203.855 250.85H203.165ZM215.817 255.6C215.27 255.6 214.827 255.417 214.487 255.05C214.153 254.683 213.987 254.19 213.987 253.57V251.94C213.987 251.313 214.153 250.817 214.487 250.45C214.82 250.083 215.263 249.9 215.817 249.9C216.277 249.9 216.647 250.027 216.927 250.28C217.213 250.533 217.357 250.873 217.357 251.3L217.147 250.97H217.337L217.327 249.77V248.2H218.117V255.5H217.327V254.53H217.117L217.357 254.2C217.357 254.633 217.213 254.977 216.927 255.23C216.647 255.477 216.277 255.6 215.817 255.6ZM216.067 254.91C216.46 254.91 216.767 254.79 216.987 254.55C217.213 254.303 217.327 253.963 217.327 253.53V251.97C217.327 251.537 217.213 251.2 216.987 250.96C216.767 250.713 216.46 250.59 216.067 250.59C215.667 250.59 215.353 250.71 215.127 250.95C214.9 251.19 214.787 251.53 214.787 251.97V253.53C214.787 253.97 214.9 254.31 215.127 254.55C215.353 254.79 215.667 254.91 216.067 254.91ZM221.453 255.6C220.873 255.6 220.416 255.453 220.083 255.16C219.749 254.86 219.583 254.457 219.583 253.95C219.583 253.45 219.746 253.057 220.073 252.77C220.399 252.477 220.839 252.33 221.393 252.33H223.143V251.75C223.143 251.383 223.036 251.1 222.823 250.9C222.609 250.7 222.306 250.6 221.913 250.6C221.566 250.6 221.276 250.677 221.043 250.83C220.816 250.983 220.686 251.19 220.653 251.45H219.853C219.919 250.977 220.139 250.6 220.513 250.32C220.893 250.04 221.366 249.9 221.933 249.9C222.546 249.9 223.033 250.067 223.393 250.4C223.753 250.727 223.933 251.17 223.933 251.73V255.5H223.153V254.43H223.023L223.173 254.27C223.173 254.677 223.016 255 222.703 255.24C222.389 255.48 221.973 255.6 221.453 255.6ZM221.643 254.96C222.083 254.96 222.443 254.85 222.723 254.63C223.003 254.41 223.143 254.123 223.143 253.77V252.94H221.403C221.089 252.94 220.839 253.027 220.653 253.2C220.466 253.373 220.373 253.61 220.373 253.91C220.373 254.23 220.486 254.487 220.713 254.68C220.939 254.867 221.249 254.96 221.643 254.96ZM226.519 257.3L227.329 255.15L225.289 250H226.169L227.469 253.43C227.522 253.563 227.572 253.713 227.619 253.88C227.672 254.04 227.712 254.173 227.739 254.28C227.772 254.173 227.812 254.037 227.859 253.87C227.906 253.703 227.952 253.553 227.999 253.42L229.219 250H230.069L227.359 257.3H226.519ZM234.187 255.6C233.941 255.6 233.747 255.53 233.607 255.39C233.461 255.243 233.387 255.05 233.387 254.81C233.387 254.557 233.461 254.357 233.607 254.21C233.747 254.063 233.941 253.99 234.187 253.99C234.434 253.99 234.631 254.063 234.777 254.21C234.917 254.357 234.987 254.557 234.987 254.81C234.987 255.05 234.917 255.243 234.777 255.39C234.631 255.53 234.434 255.6 234.187 255.6ZM239.077 255.6C238.831 255.6 238.637 255.53 238.497 255.39C238.351 255.243 238.277 255.05 238.277 254.81C238.277 254.557 238.351 254.357 238.497 254.21C238.637 254.063 238.831 253.99 239.077 253.99C239.324 253.99 239.521 254.063 239.667 254.21C239.807 254.357 239.877 254.557 239.877 254.81C239.877 255.05 239.807 255.243 239.667 255.39C239.521 255.53 239.324 255.6 239.077 255.6ZM243.957 255.6C243.711 255.6 243.514 255.53 243.367 255.39C243.227 255.243 243.157 255.05 243.157 254.81C243.157 254.557 243.227 254.357 243.367 254.21C243.514 254.063 243.711 253.99 243.957 253.99C244.204 253.99 244.397 254.063 244.537 254.21C244.684 254.357 244.757 254.557 244.757 254.81C244.757 255.05 244.684 255.243 244.537 255.39C244.397 255.53 244.204 255.6 243.957 255.6Z" fill="black" fill-opacity="0.6"/>
</g>
<g filter="url(#filter2_f_1308_5990)">
<path d="M278 163H16L278 235V163Z" fill="#D2D2D2" fill-opacity="0.19"/>
</g>
<defs>
<filter id="filter0_dddd_1308_5990" x="10.5103" y="0" width="273.49" height="353.5" filterUnits="userSpaceOnUse" color-interpolation-filters="sRGB">
<feFlood flood-opacity="0" result="BackgroundImageFix"/>
<feColorMatrix in="SourceAlpha" type="matrix" values="0 0 0 0 0 0 0 0 0 0 0 0 0 0 0 0 0 0 127 0" result="hardAlpha"/>
<feOffset dy="1"/>
<feGaussianBlur stdDeviation="1"/>
<feColorMatrix type="matrix" values="0 0 0 0 0.470588 0 0 0 0 0.470588 0 0 0 0 0.470588 0 0 0 0.1 0"/>
<feBlend mode="normal" in2="BackgroundImageFix" result="effect1_dropShadow_1308_5990"/>
<feColorMatrix in="SourceAlpha" type="matrix" values="0 0 0 0 0 0 0 0 0 0 0 0 0 0 0 0 0 0 127 0" result="hardAlpha"/>
<feOffset dy="3"/>
<feGaussianBlur stdDeviation="1.5"/>
<feColorMatrix type="matrix" values="0 0 0 0 0.470588 0 0 0 0 0.470588 0 0 0 0 0.470588 0 0 0 0.09 0"/>
<feBlend mode="normal" in2="effect1_dropShadow_1308_5990" result="effect2_dropShadow_1308_5990"/>
<feColorMatrix in="SourceAlpha" type="matrix" values="0 0 0 0 0 0 0 0 0 0 0 0 0 0 0 0 0 0 127 0" result="hardAlpha"/>
<feOffset dy="7"/>
<feGaussianBlur stdDeviation="2"/>
<feColorMatrix type="matrix" values="0 0 0 0 0.470588 0 0 0 0 0.470588 0 0 0 0 0.470588 0 0 0 0.05 0"/>
<feBlend mode="normal" in2="effect2_dropShadow_1308_5990" result="effect3_dropShadow_1308_5990"/>
<feColorMatrix in="SourceAlpha" type="matrix" values="0 0 0 0 0 0 0 0 0 0 0 0 0 0 0 0 0 0 127 0" result="hardAlpha"/>
<feOffset dy="13"/>
<feGaussianBlur stdDeviation="2.5"/>
<feColorMatrix type="matrix" values="0 0 0 0 0.470588 0 0 0 0 0.470588 0 0 0 0 0.470588 0 0 0 0.01 0"/>
<feBlend mode="normal" in2="effect3_dropShadow_1308_5990" result="effect4_dropShadow_1308_5990"/>
<feBlend mode="normal" in="SourceGraphic" in2="effect4_dropShadow_1308_5990" result="shape"/>
</filter>
<filter id="filter1_i_1308_5990" x="15.5103" y="-13" width="263.49" height="182.5" filterUnits="userSpaceOnUse" color-interpolation-filters="sRGB">
<feFlood flood-opacity="0" result="BackgroundImageFix"/>
<feBlend mode="normal" in="SourceGraphic" in2="BackgroundImageFix" result="shape"/>
<feColorMatrix in="SourceAlpha" type="matrix" values="0 0 0 0 0 0 0 0 0 0 0 0 0 0 0 0 0 0 127 0" result="hardAlpha"/>
<feOffset dy="-14"/>
<feGaussianBlur stdDeviation="7.9"/>
<feComposite in2="hardAlpha" operator="arithmetic" k2="-1" k3="1"/>
<feColorMatrix type="matrix" values="0 0 0 0 0 0 0 0 0 0 0 0 0 0 0 0 0 0 0.02 0"/>
<feBlend mode="normal" in2="shape" result="effect1_innerShadow_1308_5990"/>
</filter>
<filter id="filter2_f_1308_5990" x="0" y="147" width="294" height="104" filterUnits="userSpaceOnUse" color-interpolation-filters="sRGB">
<feFlood flood-opacity="0" result="BackgroundImageFix"/>
<feBlend mode="normal" in="SourceGraphic" in2="BackgroundImageFix" result="shape"/>
<feGaussianBlur stdDeviation="8" result="effect1_foregroundBlur_1308_5990"/>
</filter>
</defs>
</svg>
