<svg width="31" height="33" viewBox="0 0 31 33" fill="none" xmlns="http://www.w3.org/2000/svg">
<rect x="5.6106" y="0.777588" width="20.4161" height="29.1659" rx="1.94439" fill="#F04E98"/>
<path d="M0.749652 12.444C0.749653 11.3701 1.62019 10.4996 2.69405 10.4996H13.3882C14.4621 10.4996 15.3326 11.3701 15.3326 12.444V13.4162C15.3326 14.49 16.2031 15.3606 17.277 15.3606H28.9434C30.0172 15.3606 30.8877 16.2311 30.8877 17.3049V30.9157C30.8877 31.9896 30.0172 32.8601 28.9434 32.8601H2.69403C1.62017 32.8601 0.749635 31.9896 0.749636 30.9157L0.749652 12.444Z" fill="#6AD1E3"/>
<path d="M5.6106 10.4996H13.3882C14.462 10.4996 15.3326 11.3701 15.3326 12.444V13.4162C15.3326 14.49 16.2031 15.3606 17.277 15.3606H26.0267V26.0547C26.0267 27.1286 25.1562 27.9991 24.0823 27.9991H7.55499C6.48113 27.9991 5.6106 27.1286 5.6106 26.0547V10.4996Z" fill="#703DC1"/>
</svg>
