<svg width="37" height="20" viewBox="0 0 37 20" fill="none" xmlns="http://www.w3.org/2000/svg">
<path d="M2.23006 15.5468L1.11567 8.8926L5.52147 8.15476L5.71573 9.31469L2.71679 9.81693L2.98233 11.4025L5.68885 10.9492L5.8831 12.1092L3.17659 12.5624L3.63692 15.3112L2.23006 15.5468ZM8.41139 16.4356C8.23593 16.465 8.06895 16.4785 7.91045 16.4761C7.75447 16.4755 7.62321 16.4629 7.51668 16.4385L7.65556 15.353C7.82636 15.3756 7.9771 15.3782 8.10779 15.3608C8.24065 15.343 8.34929 15.2936 8.43372 15.2127C8.52031 15.1313 8.58087 15.0076 8.6154 14.8415L8.66126 14.6167L6.01126 9.78294L7.46687 9.53916L9.11387 13.0311L9.16586 13.0224L9.59504 9.18276L11.0604 8.93735L10.0468 14.7922C9.99863 15.0764 9.91109 15.3316 9.78417 15.5577C9.65978 15.7856 9.48536 15.974 9.2609 16.123C9.0368 16.2741 8.75363 16.3783 8.41139 16.4356ZM13.5054 10.6924L13.9886 13.5776L12.6045 13.8094L11.7687 8.81873L13.0878 8.59781L13.2353 9.47832L13.2938 9.46853C13.3556 9.15977 13.5024 8.89915 13.734 8.68667C13.9653 8.47202 14.2661 8.33368 14.6365 8.27164C14.9831 8.2136 15.298 8.23881 15.5811 8.34727C15.8643 8.45573 16.1009 8.63878 16.291 8.89643C16.4808 9.15191 16.6081 9.47352 16.6731 9.86124L17.2052 13.0389L15.8211 13.2707L15.3303 10.34C15.2813 10.0342 15.1634 9.80899 14.9767 9.66435C14.7895 9.51754 14.5573 9.46736 14.2801 9.51379C14.0938 9.54499 13.9359 9.61263 13.8063 9.71672C13.679 9.82044 13.5881 9.95591 13.5337 10.1231C13.4811 10.2878 13.4717 10.4776 13.5054 10.6924ZM19.1971 9.73917L19.6803 12.6244L18.2961 12.8562L17.4603 7.86554L18.7795 7.64462L18.9269 8.52513L18.9854 8.51534C19.0473 8.20659 19.194 7.94596 19.4257 7.73348C19.6569 7.51883 19.9578 7.38049 20.3282 7.31846C20.6748 7.26042 20.9896 7.28562 21.2728 7.39408C21.5559 7.50254 21.7926 7.68559 21.9827 7.94324C22.1724 8.19872 22.2998 8.52033 22.3647 8.90806L22.8969 12.0857L21.5128 12.3175L21.022 9.38679C20.973 9.08101 20.8551 8.8558 20.6683 8.71116C20.4812 8.56436 20.249 8.51417 19.9717 8.5606C19.7854 8.5918 19.6275 8.65944 19.498 8.76353C19.3706 8.86725 19.2797 9.00272 19.2253 9.16994C19.1727 9.33462 19.1633 9.52437 19.1971 9.73917Z" fill="#0D3752"/>
<path d="M25.8231 11.6591C25.6455 11.6888 25.4822 11.6516 25.3334 11.5474C25.1842 11.441 25.0946 11.2979 25.0644 11.1181C25.0347 10.9405 25.0732 10.7781 25.18 10.6311C25.2864 10.4819 25.4284 10.3924 25.606 10.3627C25.7836 10.3329 25.947 10.3713 26.0962 10.4777C26.2451 10.5819 26.3343 10.7228 26.3641 10.9004C26.384 11.0196 26.372 11.134 26.3281 11.2438C26.2859 11.3511 26.221 11.4421 26.1333 11.5169C26.0456 11.5918 25.9422 11.6391 25.8231 11.6591Z" fill="#1272DF"/>
<path d="M27.8469 11.2567L27.0112 6.26607L28.3953 6.03427L29.2311 11.0249L27.8469 11.2567ZM27.5987 5.5063C27.393 5.54076 27.205 5.5021 27.0348 5.3903C26.8665 5.27598 26.7662 5.12242 26.7339 4.92964C26.702 4.73903 26.7472 4.56334 26.8694 4.40257C26.9935 4.23927 27.1584 4.14039 27.3642 4.10593C27.57 4.07147 27.757 4.1114 27.9254 4.22573C28.0955 4.33752 28.1966 4.48873 28.2285 4.67934C28.2608 4.87212 28.2149 5.05016 28.0908 5.21346C27.9685 5.37423 27.8045 5.47184 27.5987 5.5063ZM32.611 10.5591C32.1063 10.6436 31.6519 10.6095 31.2478 10.4567C30.8454 10.3014 30.5123 10.0477 30.2485 9.69546C29.9843 9.34111 29.8094 8.90833 29.7238 8.39714C29.6374 7.88161 29.6616 7.41438 29.7963 6.99545C29.9307 6.57434 30.1629 6.22592 30.4931 5.95017C30.825 5.67189 31.2434 5.4905 31.748 5.40597C32.2527 5.32145 32.7063 5.35684 33.1086 5.51214C33.5128 5.66492 33.8469 5.91848 34.1111 6.27283C34.375 6.62502 34.5501 7.05888 34.6364 7.57441C34.722 8.0856 34.6977 8.55175 34.5633 8.97285C34.4286 9.39179 34.1953 9.74039 33.8633 10.0187C33.5332 10.2944 33.1157 10.4746 32.611 10.5591ZM32.438 9.48578C32.6676 9.44733 32.8484 9.35024 32.9804 9.19452C33.1121 9.03663 33.1979 8.83744 33.2378 8.59694C33.2798 8.35608 33.2765 8.09052 33.2279 7.80027C33.1793 7.51002 33.0959 7.25788 32.9777 7.04386C32.8616 6.82948 32.7156 6.66911 32.5397 6.56273C32.3638 6.45636 32.161 6.4224 31.9314 6.46085C31.6996 6.49966 31.5157 6.59838 31.3797 6.75699C31.2459 6.91524 31.158 7.11479 31.1159 7.35565C31.076 7.59615 31.0804 7.86153 31.129 8.15178C31.1776 8.44204 31.2599 8.69435 31.376 8.90873C31.4942 9.12275 31.6424 9.28276 31.8205 9.38877C32.0004 9.49226 32.2062 9.52459 32.438 9.48578Z" fill="#0D3752"/>
</svg>
